# xmcd
#
# Track frame offsets: 
#        183
#        9013
#        17713
#        27470
#        37760
#        47963
#        58440
#        70510
#        80588
#        89285
#        97213
#        105923
#        118068
#        128125
#        137130
#        146415
#        156245
#        165080
#        175818
#        186090
#
# Disc length: 2603 seconds
#
# Revision: 1
# Processed by: cddbd v1.5.2PL0 Copyright (c) Steve Scherf et al.
# Submitted via: ExactAudioCopy v1.3
#
DISCID=020a2914
DTITLE=Bert Weedon - The Best Of The EMI Years
DYEAR=1991
DGENRE=Instrumental Pop
TTITLE0=Jolly Gigolo (1956)
TTITLE1=Pretty Baby (1958)
TTITLE2=Rippling Tango (1958)
TTITLE3=Guitar Boogie Shuffle (1959)
TTITLE4=Twelfth Street Rag (1960)
TTITLE5=Nashville Boogie (1959)
TTITLE6=Apache (1960)
TTITLE7=Sorry Robbie (1960)
TTITLE8=Ginchy (1961)
TTITLE9=Ghost Train (1961)
TTITLE10=Red Guitar (1961)
TTITLE11=Poinciana (Song Of The Tree) (1962)
TTITLE12=Twist A Napoli (1962)
TTITLE13=South Of The Border (1962)
TTITLE14=Charlie Boy (1963)
TTITLE15=Can`t Help Falling In Love (1964)
TTITLE16=Dark Eyes (1963)
TTITLE17=It Happened In Monterey (1964)
TTITLE18=Stranger Than Fiction (1967)
TTITLE19=MacGregor`s Leap (1967)
EXTD=
EXTT0=
EXTT1=
EXTT2=
EXTT3=
EXTT4=
EXTT5=
EXTT6=
EXTT7=
EXTT8=
EXTT9=
EXTT10=
EXTT11=
EXTT12=
EXTT13=
EXTT14=
EXTT15=
EXTT16=
EXTT17=
EXTT18=
EXTT19=
PLAYORDER=
